<svg viewBox="0 0 1024 1024" xmlns="http://www.w3.org/2000/svg">
  <path d="M800 106.666667h-15.36L768 158.933333a7.893333 7.893333 0 0 1-13.653333 2.56L725.333333 126.72l-16.64 14.506667a139.946667 139.946667 0 0 0-42.666666 138.666666 137.173333 137.173333 0 0 0 101.973333 100.266667 145.28 145.28 0 0 0 21.333333 3.84 117.12 117.12 0 0 1-28.8 65.92A142.933333 142.933333 0 0 1 661.333333 490.666667v-64a149.333333 149.333333 0 0 0-128-147.626667C538.24 120.96 597.333333 106.666667 599.68 106.666667A21.333333 21.333333 0 0 0 618.666667 83.626667 21.333333 21.333333 0 0 0 595.413333 64c-7.466667 0-55.253333 7.68-83.626666 85.333333-28.373333-77.866667-76.16-85.333333-83.626667-85.333333a21.333333 21.333333 0 0 0-22.826667 18.986667A21.333333 21.333333 0 0 0 424.106667 106.666667s61.226667 11.946667 66.56 172.373333A149.333333 149.333333 0 0 0 362.666667 426.666667v61.226666a116.266667 116.266667 0 0 1-106.666667-107.733333 137.173333 137.173333 0 0 0 101.546667-100.266667 139.946667 139.946667 0 0 0-42.666667-138.666666L298.666667 126.72l-28.16 34.773333a7.68 7.68 0 0 1-7.68 2.773334 7.68 7.68 0 0 1-6.826667-5.333334L239.36 106.666667h-15.36a138.453333 138.453333 0 0 0-10.666667 277.333333 161.066667 161.066667 0 0 0 40.106667 95.146667A178.773333 178.773333 0 0 0 362.666667 530.133333V554.666667a149.333333 149.333333 0 0 0 42.666666 104.32v180.48a74.453333 74.453333 0 1 0 106.666667 67.2 73.173333 73.173333 0 0 0 0-8.533334 73.173333 73.173333 0 0 0 0 8.533334 74.666667 74.666667 0 1 0 106.666667-67.2v-180.48A149.333333 149.333333 0 0 0 661.333333 554.666667v-21.333334a185.173333 185.173333 0 0 0 129.92-54.4A162.346667 162.346667 0 0 0 832 379.733333a136.96 136.96 0 0 0 106.666667-134.4A138.88 138.88 0 0 0 800 106.666667zM128 245.333333a96.213333 96.213333 0 0 1 81.066667-94.933333l7.253333 21.333333a50.56 50.56 0 0 0 85.333333 17.493334 96.64 96.64 0 0 1 14.506667 80 95.573333 95.573333 0 0 1-69.76 68.906666A97.28 97.28 0 0 1 164.266667 320 95.573333 95.573333 0 0 1 128 245.333333zM576 746.666667h-128v-57.386667a147.413333 147.413333 0 0 0 128 0V746.666667z m-138.666667 192a32 32 0 1 1 32-32 32 32 0 0 1-32 32z m10.666667-119.893334V789.333333h128v29.44l-64 32zM586.666667 938.666667a32 32 0 1 1 32-32 32 32 0 0 1-32 32zM618.666667 554.666667a106.666667 106.666667 0 0 1-31.786667 75.733333H576V640a104.533333 104.533333 0 0 1-128 0v-9.6h-10.88A106.666667 106.666667 0 0 1 405.333333 554.666667v-128a106.666667 106.666667 0 0 1 106.666667-106.666667 106.666667 106.666667 0 0 1 106.666667 106.666667v128z m240.853333-234.666667a97.28 97.28 0 0 1-82.986667 18.133333 95.36 95.36 0 0 1-69.76-68.906666 96.64 96.64 0 0 1 14.506667-80 50.56 50.56 0 0 0 85.333333-17.493334l7.253334-21.333333A96 96 0 0 1 859.52 320z" fill="#CE4141"/>
  <path d="M469.333333 405.333333m-21.333333 0a21.333333 21.333333 0 1 0 42.666667 0 21.333333 21.333333 0 1 0-42.666667 0Z" fill="#CE4141"/>
  <path d="M554.666667 405.333333m-21.333334 0a21.333333 21.333333 0 1 0 42.666667 0 21.333333 21.333333 0 1 0-42.666667 0Z" fill="#CE4141"/>
</svg>
