<svg viewBox="0 0 1024 1024" xmlns="http://www.w3.org/2000/svg">
  <path d="M0 0m146.285714 0l731.428572 0q146.285714 0 146.285714 146.285714l0 731.428572q0 146.285714-146.285714 146.285714l-731.428572 0q-146.285714 0-146.285714-146.285714l0-731.428572q0-146.285714 146.285714-146.285714Z" fill="#FFFFFF"/>
  <path d="M765.074286 449.243429a143.030857 143.030857 0 0 0-12.8-119.478858 150.052571 150.052571 0 0 0-160.548572-70.692571c-77.129143-84.370286-216.502857-55.222857-253.330285 53.028571a147.529143 147.529143 0 0 0-98.596572 70.656 145.481143 145.481143 0 0 0 18.358857 172.397715 142.994286 142.994286 0 0 0 12.726857 119.478857 150.089143 150.089143 0 0 0 160.585143 70.692571c77.165714 84.406857 216.576 55.149714 253.330286-53.138285a147.382857 147.382857 0 0 0 98.56-70.692572 145.005714 145.005714 0 0 0-18.285714-172.324571v0.073143z m-222.354286 306.761142a111.616 111.616 0 0 1-70.985143-25.380571c0.914286-0.512 2.413714-1.243429 3.510857-1.974857l117.76-67.181714a18.432 18.432 0 0 0 9.764572-16.566858V480.914286l49.664 28.598857a1.28 1.28 0 0 1 0.914285 1.28v135.789714a110.262857 110.262857 0 0 1-110.592 109.494857v-0.109714z m-238.372571-100.388571a108.141714 108.141714 0 0 1-13.348572-73.325714c1.097143 0.731429 2.304 1.389714 3.510857 1.974857l117.833143 67.145143a19.273143 19.273143 0 0 0 19.492572 0l143.835428-81.92v56.758857a1.499429 1.499429 0 0 1-0.731428 1.462857L455.789714 695.588571a111.908571 111.908571 0 0 1-151.442285-39.972571z m-31.085715-253.878857A109.312 109.312 0 0 1 330.971429 353.718857V492.251429a19.309714 19.309714 0 0 0 9.581714 16.530285l143.835428 81.993143-49.737142 28.196572a1.792 1.792 0 0 1-1.645715 0.182857l-119.113143-67.84a108.873143 108.873143 0 0 1-40.594285-149.577143l-0.036572 0.036571z m409.417143 94.025143l-143.872-81.993143 49.773714-28.452572a1.828571 1.828571 0 0 1 1.462858-0.109714L709.12 453.12a108.580571 108.580571 0 0 1 40.484571 149.504 110.994286 110.994286 0 0 1-57.709714 48.018286V512a17.92 17.92 0 0 0-9.472-16.347429l0.219429 0.109715z m49.627429-73.728c-0.987429-0.585143-2.450286-1.462857-3.547429-2.011429L610.742857 352.841143a19.492571 19.492571 0 0 0-19.492571 0L447.451429 434.834286V378.038857a1.572571 1.572571 0 0 1 0.731428-1.462857l119.222857-67.913143a111.762286 111.762286 0 0 1 151.405715 40.155429c13.019429 22.052571 17.737143 47.981714 13.348571 73.142857l0.146286 0.073143z m-311.808 101.156571l-49.737143-28.269714a1.389714 1.389714 0 0 1-0.950857-1.28V357.741714a111.104 111.104 0 0 1 181.796571-83.894857c-0.914286 0.512-2.413714 1.28-3.510857 1.974857L430.262857 342.966857a18.285714 18.285714 0 0 0-9.581714 16.603429l-0.182857 163.547428v0.073143z m26.989714-57.526857l64.109714-36.571429 64.219429 36.571429v72.996571l-64.036572 36.571429-64.182857-36.571429-0.182857-72.996571h0.073143z" fill="#2F3430"/>
</svg>
